<svg xmlns="http://www.w3.org/2000/svg" version="1.1" xmlns:xlink="http://www.w3.org/1999/xlink" xmlns:svgjs="http://svgjs.dev/svgjs" width="100%" height="100%" viewBox="0 0 1000 600"><rect width="1000" height="600" x="0" y="0" fill="#222222"/><g><rect width="333.3333333333333" height="333.3333333333333" rx="13.333333333333334" ry="13.333333333333334" y="133.37381345163163" fill="#dddddd" transform="matrix(1.1245899817958827,0,0,1.1245899817958827,0,-37.422560980224645)" x="111.15159606933594"/><path d="M165.06682094590815 374.78905105478844L165.06682094590815 367.2818668450049L264.8872272568573 367.2818668450049L264.8872272568573 235.88818340295668L206.6975697456167 294.0778409141973L148.50791223437608 235.88818340295668L148.50791223437608 375.0404878465037L140.74929123287734 374.78905105478844L140.74929123287734 225.04048181752788L148.50791223437608 225.04048181752788L206.6975697456167 283.2301393287685L264.8872272568573 225.04048181752788L272.64584825835607 225.04048181752788L272.64584825835607 375.0404878465037L165.06682094590815 374.78905105478844ZM414.8872332858331 225.04048181752788L414.8872332858331 375.0404878465037L407.1286122843344 375.0404878465037L407.1286122843344 300.04048483201575L329.5424022693469 300.04048483201575L329.5424022693469 375.0404878465037L321.78378126784816 375.0404878465037L321.78378126784816 225.04048181752788L329.5424022693469 225.04048181752788L329.5424022693469 292.28186383051707L407.1286122843344 292.28186383051707L407.1286122843344 225.04048181752788L414.8872332858331 225.04048181752788Z " fill="#222222" transform="matrix(1.1245899817958827,0,0,1.1245899817958827,0,-37.422560980224645)"/><path d="M527.8182609512185 227.54048621289493L535.3182608187637 227.54048621289493L535.3182608187637 300.0404849324989Q535.3182608187637 337.29742871896207 547.1932606090437 352.40159511887947Q559.0682603993237 367.54048374040605 579.8321489215091 367.54048374040605Q600.5613152220855 367.54048374040605 612.4363150123654 352.40159511887947Q624.3113148026454 337.29742871896207 624.3113148026454 300.0404849324989L624.3113148026454 300.0404849324989L624.3113148026454 227.54048621289493L631.8113146701907 227.54048621289493L631.8113146701907 300.0404849324989Q631.8113146701907 375.0404836079512 579.8321489215091 375.0404836079512Q527.8182609512185 375.0404836079512 527.8182609512185 300.0404849324989L527.8182609512185 300.0404849324989L527.8182609512185 227.54048621289493ZM768.3043678151921 352.78353955657855L773.8252010510241 357.78353946827536Q760.0752012938578 375.0404836079512 728.8252018457526 375.0404836079512Q697.5752023976474 375.0404836079512 684.0682581917442 357.29742836574934Q670.561313985841 339.55437312354735 670.561313985841 300.0404849324989Q670.561313985841 260.52659674145036 684.0682581917442 242.78354149924846Q697.5752023976474 225.04048625704652 728.8252018457526 225.04048625704652L728.8252018457526 225.04048625704652Q765.0752012055547 225.04048625704652 778.0613120873227 248.79048583760644L778.0613120873227 248.79048583760644L716.8113131690366 300.0404849324989L705.0752022651927 300.0404849324989L768.3043678151921 247.2974303084192Q757.3321457867463 232.54048612459175 728.8252018457526 232.54048612459175L728.8252018457526 232.54048612459175Q716.3252020665105 232.54048612459175 707.8182577723042 235.17937496687617Q699.3113134780978 237.7835415875516 692.1932580482516 244.9015970173978Q685.0752026184055 252.05437466885294 681.5682582358959 265.6654855395832Q678.0613138533863 279.27659641031346 678.0613138533863 300.0404849324989Q678.0613138533863 320.80437345468425 681.5682582358959 334.4154843254145Q685.0752026184055 348.0265951961448 692.1932580482516 355.17937284759995Q699.3113134780978 362.29742827744616 707.8182577723042 364.9015948981216Q716.3252020665105 367.54048374040605 728.8252018457526 367.54048374040605L728.8252018457526 367.54048374040605Q757.3321457867463 367.54048374040605 768.3043678151921 352.78353955657855L768.3043678151921 352.78353955657855Z " fill="#fefefe" transform="matrix(1.1245899817958827,0,0,1.1245899817958827,0,-37.422560980224645)"/></g></svg>